<svg width="50" height="42" viewBox="0 0 50 42" fill="none" xmlns="http://www.w3.org/2000/svg">
<path d="M26.7003 33.6537C25.9869 34.0828 24.8153 34.3123 23.3549 34.2744C21.9027 34.2367 20.1953 33.9354 18.4346 33.3346C14.9115 32.1324 11.203 29.7416 8.89833 25.9104C6.5927 22.0775 6.11744 17.5102 6.60695 13.6625C6.85153 11.74 7.33599 10.006 7.94628 8.64284C8.56075 7.27033 9.28736 6.30787 9.99462 5.88242C10.7048 5.4552 11.853 5.25334 13.2819 5.33431C14.7027 5.41482 16.3694 5.77332 18.0904 6.43184C21.5337 7.74936 25.1666 10.2566 27.474 14.0925C29.7819 17.929 30.3355 22.3824 29.9262 26.1113C29.7216 27.9749 29.2773 29.6495 28.6976 30.9677C28.1142 32.2942 27.4079 33.228 26.7003 33.6537Z" fill="#79C073" stroke="#15812D" stroke-width="0.5"/>
<path d="M26.6985 33.5617C20.0966 21.3731 17.7565 14.3671 10.0698 5.64933" stroke="#368F27" stroke-width="0.3"/>
<path d="M19.6198 33.5697C19.0131 32.9995 18.4744 31.9342 18.1146 30.5183C17.7569 29.1103 17.5837 27.3852 17.6842 25.5275C17.8854 21.8104 19.1803 17.5923 22.2425 14.3346C25.306 11.0755 29.573 9.37886 33.4092 8.80603C35.326 8.51981 37.1263 8.51563 38.6039 8.73316C40.0917 8.95218 41.2152 9.3904 41.8166 9.95569C42.4205 10.5233 42.9263 11.5737 43.2361 12.971C43.5441 14.3603 43.6512 16.0617 43.4844 17.8969C43.1505 21.5685 41.723 25.7453 38.6571 29.007C35.5906 32.2692 31.4546 34.0104 27.7545 34.6282C25.9053 34.9369 24.1729 34.9636 22.7469 34.7633C21.3119 34.5618 20.2215 34.1353 19.6198 33.5697Z" fill="#96E48F" stroke="#15812D" stroke-width="0.5"/>
<path d="M19.624 33.8238C26.802 22.615 31.5844 17.2407 41.7956 9.67264" stroke="#368F27" stroke-width="0.3"/>
</svg>
